<?xml version="1.0" encoding="utf-8"?>
<!-- Generator: Adobe Illustrator 17.0.0, SVG Export Plug-In . SVG Version: 6.00 Build 0)  -->
<!DOCTYPE svg PUBLIC "-//W3C//DTD SVG 1.1//EN" "http://www.w3.org/Graphics/SVG/1.1/DTD/svg11.dtd">
<svg version="1.1" id="Capa_1" xmlns="http://www.w3.org/2000/svg" xmlns:xlink="http://www.w3.org/1999/xlink" x="0px" y="0px"
	 width="64px" height="64px" viewBox="0 0 64 64" enable-background="new 0 0 64 64" xml:space="preserve">
<path d="M31.24,58.947c13.713,0,24.869-11.156,24.869-24.869c0-6.42-2.491-12.56-6.888-17.168c0,0,0.642-1.44,1.434-3.217
	c0.792-1.777-0.347-3.031-2.544-2.802l-12.869,1.348c-2.197,0.23-2.927,1.865-1.629,3.653l7.601,10.472
	c1.298,1.788,2.9,2.002,3.579,0.478l1.23-2.759c1.979,2.929,3.086,6.396,3.086,9.995c0,9.854-8.016,17.869-17.869,17.869
	c-9.854,0-17.87-8.016-17.87-17.869c0-3.104,0.807-6.16,2.335-8.837c0.958-1.679,0.374-3.816-1.305-4.774
	c-1.68-0.959-3.816-0.374-4.775,1.306C7.496,25.504,6.37,29.759,6.37,34.078C6.37,47.791,17.527,58.947,31.24,58.947z"/>
</svg>
